<svg version="1" xmlns="http://www.w3.org/2000/svg" width="682.667" height="682.667" viewBox="0 0 512.000000 512.000000"><path d="M56.6 177.2c-1 4.6-2.8 14.2-3.1 16.2-.5 3.8-5.7 31.1-6 31.6-.2.3-.6 3-1 6s-.9 5.8-1.1 6.1c-.2.3-.5 1.9-.8 3.5-.3 1.6-1.4 7.4-2.5 12.9s-2.3 11.7-2.7 13.9c-.3 2.1-.8 4.8-1 6-.5 2.5-.2.9-6.4 33.9-2.7 14.8-5 27.5-5 28.2 0 .9 3.9 1.2 17 1.2 14.4-.1 17.1-.3 17.4-1.7.8-3 3.8-17.4 4.1-19.4.4-4.2 4.7-26.2 5.3-27.9.6-1.5 26.3-17 46.2-27.9 3-1.7 6-3.4 6.5-3.9.7-.5 4.1 3.2 9.2 9.9 4.4 5.9 17.2 22.7 28.4 37.5 11.2 14.7 21.5 28.2 22.8 30l2.5 3.3h23.3c16.3 0 23-.3 22.4-1-5-6.8-13.7-18.2-14.1-18.6-.3-.3-7.5-9.7-16-21-32.8-43.6-37.3-49.5-38-50-.3-.3-2-2.5-3.7-5l-3.1-4.6 9.5-5.4c5.3-3 11.4-6.6 13.7-7.9 2.3-1.3 6.2-3.6 8.8-5 2.5-1.4 20.2-11.6 39.3-22.6l34.6-20-30.2-.3-30.3-.2-3.8 2.5c-2 1.4-4 2.5-4.2 2.5-.2 0-4.4 2.3-9.3 5.1-19.6 11.4-25.1 14.6-26.4 15.3-.8.3-3 1.6-4.9 2.7-1.9 1.2-17.2 10-34 19.6-16.8 9.7-32.7 18.9-35.3 20.5-2.7 1.6-5.2 2.8-5.7 2.6-.4-.2-.1-3.2.7-6.8.7-3.6 1.6-7.6 1.8-9 .2-1.4 1.7-9.3 3.3-17.5 1.7-8.3 3.2-16.4 3.5-18 1.1-7 2.8-16.1 3.3-17.8.5-1.6-.8-1.7-17-1.7-17.4 0-17.6 0-18 2.2zM332 176.4c-20.7 4.6-39 16-52.1 32.6-7 8.7-12.7 21.7-14.4 32.5-.3 2.2-1.4 8.3-2.4 13.5-1.1 5.2-2.2 11.2-2.6 13.2l-.6 3.8h174l-1.5 4.2c-.8 2.3-2.6 6.1-3.9 8.4-4.8 8.2-18.4 17.4-28 18.9-2.2.4-36.1.7-75.2.7-64.7.1-71.3.2-71.7 1.7-.9 2.7-5.6 27.5-5.6 29.2 0 1.4 7.3 1.5 75.3 1.4 57.6-.1 76.5-.5 80.7-1.5 9.4-2.2 20.1-6.9 28.9-12.7 20.5-13.7 33-32.5 36.5-55.3.3-1.9 1.5-8.2 2.6-14 1.1-5.8 2-11.2 2-12 0-1.3-10.2-1.5-86.5-1.5-68.7.1-86.5-.2-86.5-1.2 0-.7 1.1-3.8 2.5-6.8 3.4-7.8 11.9-15.8 21.4-20.4l7.6-3.6 73-.2c40.2 0 73.5-.2 74.1-.2 1.2-.1 1.5-1.2 4.5-17.6 1.1-6.1 2.2-11.8 2.5-12.8.5-1.6-3.3-1.7-74.3-1.6-54.3.1-76.3.5-80.3 1.3z"/></svg>